<?xml version="1.0" standalone="no"?>
<!DOCTYPE svg PUBLIC "-//W3C//DTD SVG 20010904//EN"
 "http://www.w3.org/TR/2001/REC-SVG-20010904/DTD/svg10.dtd">
<svg version="1.0" xmlns="http://www.w3.org/2000/svg"
 width="1632.000000pt" height="1052.000000pt" viewBox="0 0 1632.000000 1052.000000"
 preserveAspectRatio="xMidYMid meet">

<g transform="translate(0.000000,1052.000000) scale(0.100000,-0.100000)"
fill="#000000" stroke="none">
<path d="M239 4463 l-90 -138 121 -3 c75 -2 127 1 135 8 7 6 43 55 81 110 l68
100 315 -2 315 -3 21 -105 22 -105 256 -3 c141 -1 257 -1 257 0 0 2 -13 64
-28 138 l-28 135 -678 3 -677 2 -90 -137z"/>
<path d="M1876 4591 c-11 -17 -36 -137 -36 -172 0 -20 5 -50 11 -68 l11 -31
606 0 607 0 37 140 36 140 -241 -2 -240 -3 -26 -100 c-32 -123 -34 -125 -188
-125 -108 0 -113 1 -128 24 -15 22 -14 30 5 104 11 44 20 85 20 91 0 14 -466
16 -474 2z"/>
<path d="M3416 4535 c-19 -75 -20 -139 -5 -184 l11 -31 428 0 c236 0 431 3
433 8 2 4 7 20 11 36 7 26 5 28 -16 21 -13 -4 -92 -10 -176 -12 -225 -7 -247
7 -212 139 11 40 20 76 20 81 0 4 -107 7 -239 7 l-239 0 -16 -65z"/>
<path d="M4387 4528 c-20 -86 -21 -117 -5 -169 l11 -39 622 0 622 0 12 26 c10
23 71 236 71 249 0 3 -107 5 -239 5 l-238 0 -26 -96 c-37 -137 -32 -134 -199
-134 -125 0 -140 2 -158 20 -24 24 -24 20 0 111 11 41 20 80 20 87 0 9 -54 12
-238 12 l-238 0 -17 -72z"/>
<path d="M6195 4588 c-6 -18 -65 -256 -65 -262 0 -3 114 -6 253 -6 l253 0 32
123 c19 67 36 130 38 140 5 16 -12 17 -251 17 -195 0 -257 -3 -260 -12z"/>
<path d="M6946 4535 c-19 -75 -20 -139 -5 -184 l11 -31 619 0 619 0 14 23 c8
12 26 67 40 122 15 55 29 108 32 118 5 16 -11 17 -235 17 l-240 0 -11 -42
c-35 -133 -44 -160 -64 -173 -15 -11 -54 -15 -157 -15 -124 0 -138 2 -154 20
-19 21 -17 42 21 188 l6 22 -240 0 -240 0 -16 -65z"/>
<path d="M8431 4563 c-6 -21 -21 -84 -35 -140 l-24 -103 629 0 628 0 15 28 c8
15 26 72 41 127 15 55 30 105 32 112 4 11 -43 13 -238 11 l-243 -3 -22 -88
c-14 -55 -31 -98 -45 -113 -21 -23 -29 -24 -133 -24 -117 0 -127 3 -144 36
-10 19 1 106 23 175 6 18 -4 19 -234 19 l-240 0 -10 -37z"/>
<path d="M9856 4531 c-18 -80 -20 -148 -6 -185 l10 -26 558 0 558 0 22 53 c12
29 22 55 22 59 0 4 -17 -1 -37 -10 -32 -14 -81 -17 -297 -20 -142 -2 -269 -1
-282 2 -13 4 -31 17 -39 29 -13 21 -13 30 0 81 8 31 15 64 15 71 0 13 -39 15
-254 15 l-254 0 -16 -69z"/>
<path d="M11215 4588 c-6 -18 -65 -256 -65 -263 0 -3 107 -4 237 -3 l237 3 6
25 c4 14 21 76 38 138 l30 112 -239 0 c-183 0 -241 -3 -244 -12z"/>
<path d="M11844 4524 c-17 -77 -15 -146 6 -184 10 -20 25 -20 604 -20 l594 0
10 28 9 27 -359 -3 c-446 -4 -428 -10 -392 133 l16 65 404 0 c352 0 404 2 404
15 0 13 -78 15 -639 15 l-640 0 -17 -76z"/>
<path d="M13257 4531 c-20 -80 -21 -135 -6 -180 l11 -31 611 2 611 3 6 25 c4
14 21 76 38 138 l30 112 -243 0 -243 0 -22 -92 c-35 -144 -27 -138 -176 -138
-69 0 -134 5 -145 10 -25 14 -24 46 1 135 11 38 20 73 20 77 0 5 -107 8 -238
8 l-239 0 -16 -69z"/>
<path d="M14751 4563 c-6 -21 -19 -76 -30 -123 -11 -47 -23 -93 -26 -102 -7
-17 8 -18 232 -18 l239 0 33 128 c19 70 36 133 39 140 3 9 -48 12 -237 12
l-240 0 -10 -37z"/>
<path d="M15532 4477 c-17 -68 -34 -131 -38 -140 -6 -16 13 -17 233 -17 l239
0 32 123 c19 67 36 130 38 140 5 16 -11 17 -234 17 l-240 0 -30 -123z"/>
</g>
</svg>
